<svg xmlns="http://www.w3.org/2000/svg" xml:space="preserve" style="fill-rule:evenodd;clip-rule:evenodd;stroke-linejoin:round;stroke-miterlimit:2" viewBox="0 0 172 60"><path d="M171 6.75c0-1.518-1.305-2.75-2.913-2.75H6.913C5.305 4 4 5.232 4 6.75v49.5C4 57.768 5.305 59 6.913 59h161.174c1.608 0 2.913-1.232 2.913-2.75z" style="fill:#109ad6" transform="matrix(1.02994 0 0 1.09091 -4.12 -4.364)"/><path d="M.584 0 .536-.118H.238L.19 0H.025l.279-.687H.47L.749 0zM.285-.233h.204l-.102-.25z" style="fill:#fff;fill-rule:nonzero" transform="matrix(21.7599 0 0 22.24845 68.8 44.476)"/><path d="M.317-.687q.114 0 .204.044t.141.122q.05.078.05.177a.32.32 0 0 1-.191.3A.5.5 0 0 1 .317 0H.071v-.687zm.019.553a.25.25 0 0 0 .116-.027.2.2 0 0 0 .108-.183.2.2 0 0 0-.108-.183.3.3 0 0 0-.116-.026H.218v.419z" style="fill:#fff;fill-rule:nonzero" transform="matrix(21.7599 0 0 22.24845 85.207 44.476)"/><path d="M.317-.687q.114 0 .204.044t.141.122q.05.078.05.177a.32.32 0 0 1-.191.3A.5.5 0 0 1 .317 0H.071v-.687zm.019.553a.25.25 0 0 0 .116-.027.2.2 0 0 0 .108-.183.2.2 0 0 0-.108-.183.3.3 0 0 0-.116-.026H.218v.419z" style="fill:#fff;fill-rule:nonzero" transform="matrix(21.7599 0 0 22.24845 101.048 44.476)"/><path d="M.044-.337h.274v.124H.044z" style="fill:#fff;fill-rule:nonzero" transform="matrix(21.7599 0 0 22.24845 116.89 44.476)"/><path d="M.401.012A.35.35 0 0 1 .22-.037a.36.36 0 0 1-.184-.307q0-.095.05-.177a.4.4 0 0 1 .134-.13.36.36 0 0 1 .181-.048q.097 0 .181.048a.4.4 0 0 1 .134.13.34.34 0 0 1 0 .354.36.36 0 0 1-.134.13.35.35 0 0 1-.181.049m0-.134q.057 0 .106-.031a.223.223 0 0 0 0-.382.2.2 0 0 0-.211 0 .23.23 0 0 0-.108.191.223.223 0 0 0 .213.222" style="fill:#fff;fill-rule:nonzero" transform="matrix(21.7599 0 0 22.24845 124.332 44.476)"/><path d="M.071-.687h.147l.332.444v-.444h.147V0H.55L.218-.444V0H.071z" style="fill:#fff;fill-rule:nonzero" transform="matrix(21.7599 0 0 22.24845 141.347 44.476)"/><path d="M.385-.378h.294V-.1a.4.4 0 0 1-.274.112.34.34 0 0 1-.18-.049.36.36 0 0 1-.183-.307.36.36 0 0 1 .363-.355.4.4 0 0 1 .274.111L.59-.505a.2.2 0 0 0-.083-.059.3.3 0 0 0-.102-.021.24.24 0 0 0-.204.121.24.24 0 0 0 0 .24.24.24 0 0 0 .204.122.25.25 0 0 0 .152-.05v-.124H.385z" style="fill:#fff;fill-rule:nonzero" transform="matrix(14.67884 0 0 15.00844 69.003 25.704)"/><path d="M.59-.573H.198v.166h.355v.114H.198v.179H.59V0H.073v-.687H.59z" style="fill:#fff;fill-rule:nonzero" transform="matrix(14.67884 0 0 15.00844 79.425 25.704)"/><path d="M.257-.573h-.22v-.114h.564v.114H.382V0H.257z" style="fill:#fff;fill-rule:nonzero" transform="matrix(14.67884 0 0 15.00844 88.584 25.704)"/><path d="M.257-.573h-.22v-.114h.564v.114H.382V0H.257z" style="fill:#fff;fill-rule:nonzero" transform="matrix(14.67884 0 0 15.00844 101.384 25.704)"/><path d="M.541-.687h.124V0H.541v-.293H.198V0H.073v-.687h.125v.28h.343z" style="fill:#fff;fill-rule:nonzero" transform="matrix(14.67884 0 0 15.00844 110.47 25.704)"/><path d="M.59-.573H.198v.166h.355v.114H.198v.179H.59V0H.073v-.687H.59z" style="fill:#fff;fill-rule:nonzero" transform="matrix(14.67884 0 0 15.00844 121.025 25.704)"/><path d="M478.711 166.353c-10.445-25.124-31.6-52.248-48.212-60.821 13.52 26.505 21.345 53.093 24.335 72.936 0 .039.015.136.047.4C427.706 111.135 381.627 83.823 344 24.355c-1.9-3.007-3.805-6.022-5.661-9.2a74 74 0 0 1-2.646-4.972A43.7 43.7 0 0 1 332.1.677a.63.63 0 0 0-.546-.644.8.8 0 0 0-.451 0c-.034.012-.084.051-.12.065-.053.021-.12.069-.176.1.027-.036.083-.117.1-.136-60.37 35.356-80.85 100.761-82.732 133.484a120.26 120.26 0 0 0-66.142 25.488 71 71 0 0 0-6.225-4.7 111.35 111.35 0 0 1-.674-58.732c-24.688 11.241-43.89 29.01-57.85 44.7h-.111c-9.527-12.067-8.855-51.873-8.312-60.184-.114-.515-7.107 3.63-8.023 4.255a175 175 0 0 0-23.486 20.12 210.5 210.5 0 0 0-22.442 26.913c0 .012-.007.026-.011.038 0-.013.007-.026.011-.038a202.9 202.9 0 0 0-32.247 72.805c-.115.521-.212 1.061-.324 1.586-.452 2.116-2.08 12.7-2.365 15-.022.177-.032.347-.053.524a229 229 0 0 0-3.9 33.157c0 .41-.025.816-.025 1.227C16 388.418 123.6 496 256.324 496c118.865 0 217.56-86.288 236.882-199.63.407-3.076.733-6.168 1.092-9.271 4.777-41.21-.53-84.525-15.587-120.746M201.716 354.447c1.124.537 2.18 1.124 3.334 1.639.048.033.114.07.163.1a126 126 0 0 1-3.497-1.739M454.9 178.927l-.032-.233c.012.085.027.174.04.259z" style="fill:url(#a);fill-rule:nonzero" transform="translate(9.614 6.788)scale(.09476)"/><path d="M478.711 166.353c-10.445-25.124-31.6-52.248-48.212-60.821 13.52 26.505 21.345 53.093 24.335 72.936 0-.058.011.048.036.226l.04.259c22.675 61.47 10.322 123.978-7.479 162.175-27.539 59.1-94.215 119.67-198.576 116.716C136.1 454.651 36.766 370.988 18.223 261.41c-3.379-17.28 0-26.054 1.7-40.084-2.071 10.816-2.86 13.94-3.9 33.157 0 .41-.025.816-.025 1.227C16 388.418 123.6 496 256.324 496c118.865 0 217.56-86.288 236.882-199.63.407-3.076.733-6.168 1.092-9.271 4.777-41.21-.53-84.525-15.587-120.746" style="fill:url(#b);fill-rule:nonzero" transform="translate(9.614 6.788)scale(.09476)"/><path d="M478.711 166.353c-10.445-25.124-31.6-52.248-48.212-60.821 13.52 26.505 21.345 53.093 24.335 72.936 0-.058.011.048.036.226l.04.259c22.675 61.47 10.322 123.978-7.479 162.175-27.539 59.1-94.215 119.67-198.576 116.716C136.1 454.651 36.766 370.988 18.223 261.41c-3.379-17.28 0-26.054 1.7-40.084-2.071 10.816-2.86 13.94-3.9 33.157 0 .41-.025.816-.025 1.227C16 388.418 123.6 496 256.324 496c118.865 0 217.56-86.288 236.882-199.63.407-3.076.733-6.168 1.092-9.271 4.777-41.21-.53-84.525-15.587-120.746" style="fill:url(#c);fill-rule:nonzero" transform="translate(9.614 6.788)scale(.09476)"/><path d="M361.922 194.6c.524.368 1 .734 1.493 1.1a130.7 130.7 0 0 0-22.31-29.112C266.4 91.892 321.516 4.626 330.811.194c.027-.036.083-.117.1-.136-60.37 35.356-80.85 100.761-82.732 133.484 2.8-.194 5.592-.429 8.442-.429 45.051 0 84.289 24.77 105.301 61.487" style="fill:url(#d);fill-rule:nonzero" transform="translate(9.614 6.788)scale(.09476)"/><path d="M256.772 209.514c-.393 5.978-21.514 26.593-28.9 26.593-68.339 0-79.432 41.335-79.432 41.335 3.027 34.81 27.261 63.475 56.611 78.643 1.339.692 2.694 1.317 4.05 1.935a133 133 0 0 0 7.059 2.886 106.7 106.7 0 0 0 31.271 6.031c119.78 5.618 142.986-143.194 56.545-186.408 22.137-3.85 45.115 5.053 57.947 14.067-21.012-36.714-60.25-61.484-105.3-61.484-2.85 0-5.641.235-8.442.429a120.26 120.26 0 0 0-66.142 25.488c3.664 3.1 7.8 7.244 16.514 15.828 16.302 16.067 58.13 32.705 58.219 34.657" style="fill:url(#e);fill-rule:nonzero" transform="translate(9.614 6.788)scale(.09476)"/><path d="M256.772 209.514c-.393 5.978-21.514 26.593-28.9 26.593-68.339 0-79.432 41.335-79.432 41.335 3.027 34.81 27.261 63.475 56.611 78.643 1.339.692 2.694 1.317 4.05 1.935a133 133 0 0 0 7.059 2.886 106.7 106.7 0 0 0 31.271 6.031c119.78 5.618 142.986-143.194 56.545-186.408 22.137-3.85 45.115 5.053 57.947 14.067-21.012-36.714-60.25-61.484-105.3-61.484-2.85 0-5.641.235-8.442.429a120.26 120.26 0 0 0-66.142 25.488c3.664 3.1 7.8 7.244 16.514 15.828 16.302 16.067 58.13 32.705 58.219 34.657" style="fill:url(#f);fill-rule:nonzero" transform="translate(9.614 6.788)scale(.09476)"/><path d="M170.829 151.036q2.51 1.62 4.981 3.3a111.35 111.35 0 0 1-.674-58.732c-24.688 11.241-43.89 29.01-57.85 44.7 1.155-.033 36.014-.66 53.543 10.732" style="fill:url(#g);fill-rule:nonzero" transform="translate(9.614 6.788)scale(.09476)"/><path d="M18.223 261.41C36.766 370.988 136.1 454.651 248.855 457.844c104.361 2.954 171.037-57.62 198.576-116.716 17.8-38.2 30.154-100.7 7.479-162.175l-.008-.026-.032-.233c-.025-.178-.04-.284-.036-.226 0 .039.015.136.047.4 8.524 55.661-19.79 109.584-64.051 146.044l-.133.313c-86.245 70.223-168.774 42.368-185.484 30.966a144 144 0 0 1-3.5-1.743c-50.282-24.029-71.054-69.838-66.6-109.124-42.457 0-56.934-35.809-56.934-35.809s38.119-27.179 88.358-3.541c46.53 21.893 90.228 3.543 90.233 3.541-.089-1.952-41.917-18.59-58.223-34.656-8.713-8.584-12.85-12.723-16.514-15.828a71 71 0 0 0-6.225-4.7 279 279 0 0 0-4.981-3.3c-17.528-11.392-52.388-10.765-53.543-10.735h-.111c-9.527-12.067-8.855-51.873-8.312-60.184-.114-.515-7.107 3.63-8.023 4.255a175 175 0 0 0-23.486 20.12 210.5 210.5 0 0 0-22.442 26.919c0 .012-.007.026-.011.038 0-.013.007-.026.011-.038a202.9 202.9 0 0 0-32.247 72.805c-.115.521-8.65 37.842-4.44 57.199" style="fill:url(#h);fill-rule:nonzero" transform="translate(9.614 6.788)scale(.09476)"/><path d="M341.105 166.587a130.7 130.7 0 0 1 22.31 29.112c1.323.994 2.559 1.985 3.608 2.952 54.482 50.2 25.936 121.2 23.807 126.26 44.261-36.46 72.575-90.383 64.051-146.044C427.706 111.135 381.627 83.823 344 24.355c-1.9-3.007-3.805-6.022-5.661-9.2a74 74 0 0 1-2.646-4.972A43.7 43.7 0 0 1 332.1.677a.63.63 0 0 0-.546-.644.8.8 0 0 0-.451 0c-.034.012-.084.051-.12.065-.053.021-.12.069-.176.1-9.291 4.428-64.407 91.694 10.298 166.389" style="fill:url(#i);fill-rule:nonzero" transform="translate(9.614 6.788)scale(.09476)"/><path d="M367.023 198.651c-1.049-.967-2.285-1.958-3.608-2.952-.489-.368-.969-.734-1.493-1.1-12.832-9.014-35.81-17.917-57.947-14.067 86.441 43.214 63.235 192.026-56.545 186.408a106.7 106.7 0 0 1-31.271-6.031 134 134 0 0 1-7.059-2.886c-1.356-.618-2.711-1.243-4.05-1.935.048.033.114.07.163.1 16.71 11.4 99.239 39.257 185.484-30.966l.133-.313c2.129-5.054 30.675-76.057-23.807-126.258" style="fill:url(#j);fill-rule:nonzero" transform="translate(9.614 6.788)scale(.09476)"/><path d="M148.439 277.443s11.093-41.335 79.432-41.335c7.388 0 28.509-20.615 28.9-26.593s-43.7 18.352-90.233-3.541c-50.239-23.638-88.358 3.541-88.358 3.541s14.477 35.809 56.934 35.809c-4.453 39.286 16.319 85.1 66.6 109.124 1.124.537 2.18 1.124 3.334 1.639-29.348-15.169-53.582-43.834-56.609-78.644" style="fill:url(#k);fill-rule:nonzero" transform="translate(9.614 6.788)scale(.09476)"/><path d="M478.711 166.353c-10.445-25.124-31.6-52.248-48.212-60.821 13.52 26.505 21.345 53.093 24.335 72.936 0 .039.015.136.047.4C427.706 111.135 381.627 83.823 344 24.355c-1.9-3.007-3.805-6.022-5.661-9.2a74 74 0 0 1-2.646-4.972A43.7 43.7 0 0 1 332.1.677a.63.63 0 0 0-.546-.644.8.8 0 0 0-.451 0c-.034.012-.084.051-.12.065-.053.021-.12.069-.176.1.027-.036.083-.117.1-.136-60.37 35.356-80.85 100.761-82.732 133.484 2.8-.194 5.592-.429 8.442-.429 45.053 0 84.291 24.77 105.3 61.484-12.832-9.014-35.81-17.917-57.947-14.067 86.441 43.214 63.235 192.026-56.545 186.408a106.7 106.7 0 0 1-31.271-6.031 134 134 0 0 1-7.059-2.886c-1.356-.618-2.711-1.243-4.05-1.935.048.033.114.07.163.1a144 144 0 0 1-3.5-1.743c1.124.537 2.18 1.124 3.334 1.639-29.35-15.168-53.584-43.833-56.611-78.643 0 0 11.093-41.335 79.432-41.335 7.388 0 28.509-20.615 28.9-26.593-.089-1.952-41.917-18.59-58.223-34.656-8.713-8.584-12.85-12.723-16.514-15.828a71 71 0 0 0-6.225-4.7 111.35 111.35 0 0 1-.674-58.732c-24.688 11.241-43.89 29.01-57.85 44.7h-.111c-9.527-12.067-8.855-51.873-8.312-60.184-.114-.515-7.107 3.63-8.023 4.255a175 175 0 0 0-23.486 20.12 210.5 210.5 0 0 0-22.435 26.916c0 .012-.007.026-.011.038 0-.013.007-.026.011-.038a202.9 202.9 0 0 0-32.247 72.805c-.115.521-.212 1.061-.324 1.586-.452 2.116-2.486 12.853-2.77 15.156-.022.177.021-.176 0 0a280 280 0 0 0-3.544 33.53c0 .41-.025.816-.025 1.227C16 388.418 123.6 496 256.324 496c118.865 0 217.56-86.288 236.882-199.63.407-3.076.733-6.168 1.092-9.271 4.777-41.21-.53-84.525-15.587-120.746m-23.841 12.341.04.259-.008-.026z" style="fill:url(#l);fill-rule:nonzero" transform="translate(9.614 6.788)scale(.09476)"/><defs><radialGradient id="b" cx="0" cy="0" r="1" gradientTransform="translate(436.393 55.162)scale(614.402)" gradientUnits="userSpaceOnUse"><stop offset="0" style="stop-color:#ffbd4f;stop-opacity:1"/><stop offset=".13" style="stop-color:#ffbd4f;stop-opacity:1"/><stop offset=".28" style="stop-color:#ff980e;stop-opacity:1"/><stop offset=".47" style="stop-color:#ff3750;stop-opacity:1"/><stop offset=".78" style="stop-color:#eb0878;stop-opacity:1"/><stop offset=".86" style="stop-color:#e50080;stop-opacity:1"/><stop offset="1" style="stop-color:#e50080;stop-opacity:1"/></radialGradient><radialGradient id="c" cx="0" cy="0" r="1" gradientTransform="translate(251.689 262.119)scale(614.402)" gradientUnits="userSpaceOnUse"><stop offset="0" style="stop-color:#960e18;stop-opacity:1"/><stop offset=".3" style="stop-color:#960e18;stop-opacity:1"/><stop offset=".35" style="stop-color:#b11927;stop-opacity:.74"/><stop offset=".43" style="stop-color:#db293d;stop-opacity:.34"/><stop offset=".5" style="stop-color:#f5334b;stop-opacity:.09"/><stop offset=".53" style="stop-color:#ff3750;stop-opacity:0"/><stop offset="1" style="stop-color:#ff3750;stop-opacity:0"/></radialGradient><radialGradient id="d" cx="0" cy="0" r="1" gradientTransform="translate(303.492 -23.419)scale(273.899)" gradientUnits="userSpaceOnUse"><stop offset="0" style="stop-color:#fff44f;stop-opacity:1"/><stop offset=".13" style="stop-color:#fff44f;stop-opacity:1"/><stop offset=".53" style="stop-color:#ff980e;stop-opacity:1"/><stop offset="1" style="stop-color:#ff980e;stop-opacity:1"/></radialGradient><radialGradient id="e" cx="0" cy="0" r="1" gradientTransform="translate(197.029 390.747)scale(233.98)" gradientUnits="userSpaceOnUse"><stop offset="0" style="stop-color:#3a8ee6;stop-opacity:1"/><stop offset=".35" style="stop-color:#3a8ee6;stop-opacity:1"/><stop offset=".67" style="stop-color:#9059ff;stop-opacity:1"/><stop offset="1" style="stop-color:#c139e6;stop-opacity:1"/></radialGradient><radialGradient id="f" cx="0" cy="0" r="1" gradientTransform="matrix(124.243 0 0 138.048 233.506 210.325)" gradientUnits="userSpaceOnUse"><stop offset="0" style="stop-color:#9059ff;stop-opacity:0"/><stop offset=".21" style="stop-color:#9059ff;stop-opacity:0"/><stop offset=".97" style="stop-color:#6e008b;stop-opacity:.6"/><stop offset="1" style="stop-color:#6e008b;stop-opacity:.6"/></radialGradient><radialGradient id="g" cx="0" cy="0" r="1" gradientTransform="translate(240.186 36.872)scale(170.323)" gradientUnits="userSpaceOnUse"><stop offset="0" style="stop-color:#ffe226;stop-opacity:1"/><stop offset=".1" style="stop-color:#ffe226;stop-opacity:1"/><stop offset=".79" style="stop-color:#ff7139;stop-opacity:1"/><stop offset="1" style="stop-color:#ff7139;stop-opacity:1"/></radialGradient><radialGradient id="h" cx="0" cy="0" r="1" gradientTransform="translate(395.187 -74.863)scale(810.278)" gradientUnits="userSpaceOnUse"><stop offset="0" style="stop-color:#fff44f;stop-opacity:1"/><stop offset=".11" style="stop-color:#fff44f;stop-opacity:1"/><stop offset=".46" style="stop-color:#ff980e;stop-opacity:1"/><stop offset=".72" style="stop-color:#ff3647;stop-opacity:1"/><stop offset=".9" style="stop-color:#e31587;stop-opacity:1"/><stop offset="1" style="stop-color:#e31587;stop-opacity:1"/></radialGradient><radialGradient id="i" cx="0" cy="0" r="1" gradientTransform="translate(327.452 -60.622)scale(1133.29)" gradientUnits="userSpaceOnUse"><stop offset="0" style="stop-color:#fff44f;stop-opacity:1"/><stop offset=".3" style="stop-color:#ff980e;stop-opacity:1"/><stop offset=".57" style="stop-color:#ff3647;stop-opacity:1"/><stop offset=".74" style="stop-color:#e31587;stop-opacity:1"/><stop offset="1" style="stop-color:#e31587;stop-opacity:1"/></radialGradient><radialGradient id="j" cx="0" cy="0" r="1" gradientTransform="translate(241.932 98.133)scale(465.218)" gradientUnits="userSpaceOnUse"><stop offset="0" style="stop-color:#fff44f;stop-opacity:1"/><stop offset=".14" style="stop-color:#fff44f;stop-opacity:1"/><stop offset=".48" style="stop-color:#ff980e;stop-opacity:1"/><stop offset=".66" style="stop-color:#ff3647;stop-opacity:1"/><stop offset=".9" style="stop-color:#e31587;stop-opacity:1"/><stop offset="1" style="stop-color:#e31587;stop-opacity:1"/></radialGradient><radialGradient id="k" cx="0" cy="0" r="1" gradientTransform="translate(362.68 124.863)scale(559.177)" gradientUnits="userSpaceOnUse"><stop offset="0" style="stop-color:#fff44f;stop-opacity:1"/><stop offset=".09" style="stop-color:#fff44f;stop-opacity:1"/><stop offset=".63" style="stop-color:#ff980e;stop-opacity:1"/><stop offset="1" style="stop-color:#ff980e;stop-opacity:1"/></radialGradient><linearGradient id="a" x1="0" x2="1" y1="0" y2="0" gradientTransform="rotate(134.153 201.143 130.378)scale(536.454)" gradientUnits="userSpaceOnUse"><stop offset="0" style="stop-color:#fff44f;stop-opacity:1"/><stop offset=".05" style="stop-color:#fff44f;stop-opacity:1"/><stop offset=".37" style="stop-color:#ff980e;stop-opacity:1"/><stop offset=".53" style="stop-color:#ff3647;stop-opacity:1"/><stop offset=".7" style="stop-color:#e31587;stop-opacity:1"/><stop offset="1" style="stop-color:#e31587;stop-opacity:1"/></linearGradient><linearGradient id="l" x1="0" x2="1" y1="0" y2="0" gradientTransform="matrix(-297.6 347.199 -347.199 -297.6 400 69.441)" gradientUnits="userSpaceOnUse"><stop offset="0" style="stop-color:#fff44f;stop-opacity:.8"/><stop offset=".17" style="stop-color:#fff44f;stop-opacity:.8"/><stop offset=".6" style="stop-color:#fff44f;stop-opacity:0"/><stop offset="1" style="stop-color:#fff44f;stop-opacity:0"/></linearGradient></defs></svg>