<?xml version="1.0" encoding="UTF-8" standalone="no"?>
<svg width="15px" height="15px" viewBox="0 0 15 15" version="1.1" xmlns="http://www.w3.org/2000/svg" xmlns:xlink="http://www.w3.org/1999/xlink">
    <!-- Generator: Sketch 39.1 (31720) - http://www.bohemiancoding.com/sketch -->
    <title>features</title>
    <desc>Created with Sketch.</desc>
    <defs></defs>
    <g id="icons-16px" stroke="none" stroke-width="1" fill="none" fill-rule="evenodd">
        <g id="Talkie" transform="translate(-1.000000, -1.000000)" fill="#C7C9CF">
            <path d="M11.336887,12.6332623 L8.26652452,10.7910448 L5.19616205,12.6332623 L6.01492537,9.11940299 L3.28571429,6.76545842 L6.86780384,6.49253731 L8.26652452,3.18336887 L9.6652452,6.45842217 L13.2473348,6.76545842 L10.5181237,9.11940299 L11.336887,12.6332623 Z M8.26652452,1 C6.19686243,1.04548708 4.47975096,1.75621203 3.11513859,3.13219616 C1.75052623,4.5081803 1.04548708,6.21960597 1,8.26652452 C1.04548708,10.3361866 1.75052623,12.0532981 3.11513859,13.4179104 C4.47975096,14.7825228 6.19686243,15.487562 8.26652452,15.533049 C10.3361866,15.487562 12.0532981,14.7825228 13.4179104,13.4179104 C14.7825228,12.0532981 15.487562,10.3361866 15.533049,8.26652452 C15.487562,6.19686243 14.7825228,4.47975096 13.4179104,3.11513859 C12.0532981,1.75052623 10.3361866,1.04548708 8.26652452,1 L8.26652452,1 Z" id="features"></path>
        </g>
    </g>
</svg>