<?xml version="1.0" encoding="UTF-8" standalone="no"?>
<svg width="15px" height="15px" viewBox="0 0 15 15" version="1.1" xmlns="http://www.w3.org/2000/svg" xmlns:xlink="http://www.w3.org/1999/xlink">
    <!-- Generator: Sketch 39.1 (31720) - http://www.bohemiancoding.com/sketch -->
    <title>settings</title>
    <desc>Created with Sketch.</desc>
    <defs></defs>
    <g id="icons-16px" stroke="none" stroke-width="1" fill="none" fill-rule="evenodd">
        <g id="Talkie" transform="translate(-1.000000, -1.000000)" fill="#C7C9CF">
            <path d="M8.16479746,10.9396029 C7.4285269,10.9165944 6.81881199,10.6635052 6.33563443,10.1803276 C5.85245688,9.69715009 5.61087172,9.08743517 5.61087172,8.35116461 C5.61087172,7.61489405 5.85245688,7.00517914 6.33563443,6.52200159 C6.81881199,6.03882403 7.4285269,5.79723888 8.16479746,5.79723888 C8.90106802,5.79723888 9.51078293,6.03882403 9.99396048,6.52200159 C10.477138,7.00517914 10.7187232,7.61489405 10.7187232,8.35116461 C10.7187232,9.08743517 10.477138,9.69715009 9.99396048,10.1803276 C9.51078293,10.6635052 8.90106802,10.9165944 8.16479746,10.9396029 L8.16479746,10.9396029 Z M13.6522865,9.07592732 C13.675295,8.84584277 13.686799,8.60425762 13.686799,8.35116461 C13.686799,8.09807161 13.675295,7.85648646 13.6522865,7.62640191 L15.2053495,6.41846406 C15.3434002,6.28041333 15.3664083,6.11935656 15.2743745,5.93528892 L13.7903366,3.38136319 C13.6983028,3.220304 13.54875,3.17428778 13.3416739,3.24331315 L11.5125109,3.96807585 C11.1443756,3.66896594 10.7302297,3.42738079 10.2700606,3.24331315 L9.99396048,1.31061259 C9.94794357,1.10353649 9.83290303,1 9.64883539,1 L6.68075953,1 C6.49669189,1 6.38165134,1.10353649 6.33563443,1.31061259 L6.05953435,3.24331315 C5.59936525,3.42738079 5.18521928,3.66896594 4.817084,3.96807585 L2.98792097,3.24331315 C2.78084487,3.17428778 2.63129216,3.220304 2.53925834,3.38136319 L1.05522041,5.93528892 C0.963186593,6.11935656 0.986194703,6.28041333 1.12424543,6.41846406 L2.67730838,7.62640191 C2.65429993,7.85648646 2.64279587,8.09807161 2.64279587,8.35116461 C2.64279587,8.60425762 2.65429993,8.84584277 2.67730838,9.07592732 L1.12424543,10.2838652 C0.986194703,10.4219159 0.963186593,10.5829727 1.05522041,10.7670403 L2.53925834,13.320966 C2.63129216,13.4820252 2.78084487,13.5280414 2.98792097,13.4590161 L4.817084,12.7342534 C5.18521928,13.0333633 5.59936525,13.2749484 6.05953435,13.4590161 L6.33563443,15.3917166 C6.38165134,15.5987927 6.49669189,15.7023292 6.68075953,15.7023292 L9.64883539,15.7023292 C9.83290303,15.7023292 9.94794357,15.5987927 9.99396048,15.3917166 L10.2700606,13.4590161 C10.7302297,13.2749484 11.1443756,13.0333633 11.5125109,12.7342534 L13.3416739,13.4590161 C13.54875,13.5280414 13.6983028,13.4820252 13.7903366,13.320966 L15.2743745,10.7670403 C15.3664083,10.5829727 15.3434002,10.4219159 15.2053495,10.2838652 L13.6522865,9.07592732 Z" id="settings"></path>
        </g>
    </g>
</svg>