<svg xmlns="http://www.w3.org/2000/svg" width="15" height="15"><path fill="#C7C9CF" fill-rule="evenodd" d="M7.165 9.94q-1.104-.034-1.83-.76-.724-.725-.724-1.829t.725-1.829 1.829-.725 1.829.725.725 1.83q0 1.103-.725 1.828t-1.83.76m5.487-1.864a7 7 0 0 0 .035-.725 7 7 0 0 0-.035-.725l1.553-1.208q.207-.207.07-.483L12.79 2.381q-.138-.24-.448-.138l-1.83.725Q9.96 2.52 9.27 2.243L8.994.311Q8.925 0 8.649 0H5.68q-.277 0-.345.31L5.06 2.244q-.69.276-1.243.725l-1.83-.725q-.31-.103-.448.138L.055 4.935q-.138.276.07.483l1.552 1.208a7 7 0 0 0-.034.725q0 .38.034.725L.124 9.284q-.206.207-.069.483l1.484 2.554q.138.242.449.138l1.83-.725q.55.449 1.242.725l.276 1.933q.068.31.345.31h2.968q.276 0 .345-.31l.276-1.933q.69-.276 1.243-.725l1.829.725q.31.104.448-.138l1.484-2.554q.139-.276-.069-.483z"/></svg>