<svg xmlns="http://www.w3.org/2000/svg" width="15" height="15"><path fill="#C7C9CF" fill-rule="evenodd" d="M7.165 9.94c-.736-.023-1.346-.276-1.83-.76-.483-.483-.724-1.093-.724-1.829s.241-1.346.725-1.829c.483-.483 1.093-.725 1.829-.725s1.346.242 1.829.725c.483.483.725 1.093.725 1.83 0 .735-.242 1.345-.725 1.828-.483.484-1.093.737-1.83.76Zm5.487-1.864a7.29 7.29 0 0 0 .035-.725 7.29 7.29 0 0 0-.035-.725l1.553-1.208c.138-.138.161-.299.07-.483L12.79 2.381c-.092-.16-.241-.207-.448-.138l-1.83.725a4.786 4.786 0 0 0-1.242-.725L8.994.311C8.948.104 8.833 0 8.649 0H5.68c-.184 0-.3.104-.345.31L5.06 2.244c-.46.184-.875.426-1.243.725l-1.83-.725c-.206-.069-.356-.023-.448.138L.055 4.935c-.092.184-.069.345.07.483l1.552 1.208a7.29 7.29 0 0 0-.034.725c0 .253.011.495.034.725L.124 9.284c-.138.138-.16.299-.069.483l1.484 2.554c.092.161.242.207.449.138l1.83-.725c.367.3.781.54 1.242.725l.276 1.933c.046.207.16.31.345.31h2.968c.184 0 .299-.103.345-.31l.276-1.933a4.78 4.78 0 0 0 1.243-.725l1.829.725c.207.069.356.023.448-.138l1.484-2.554c.092-.184.07-.345-.069-.483l-1.553-1.208Z"/></svg>