<svg xmlns="http://www.w3.org/2000/svg" width="16" height="9"><path fill="#C7C9CF" fill-rule="evenodd" d="M3.192 7.211h9.616v1.615H3.192V7.211Zm0-2.403v1.615H0V4.808h3.192Zm.79 1.615V4.808h2.403v1.615H3.981Zm3.23 0V4.808h1.577v1.615H7.21Zm2.403 0V4.808h2.404v1.615H9.615Zm3.193 0V4.808H16v1.615h-3.192ZM0 2.403h2.404V4.02H0V2.404ZM13.596 4.02V2.404H16v1.615h-2.404Zm-.788 0h-1.616V2.404h1.616v1.615Zm-8 0H3.192V2.404h1.616v1.615ZM8 4.02H5.596V2.404H8v1.615Zm2.404 0H8.789V2.404h1.615v1.615ZM0 1.615V0h1.577v1.615H0Zm2.404 0V0H3.98v1.615H2.404Zm2.404 0V0h1.577v1.615H4.808Zm2.403 0V0H8.79v1.615H7.21Zm2.404 0V0h1.577v1.615H9.615Zm2.404 0V0H16v1.615h-3.981Z"/></svg>