<?xml version="1.0" encoding="UTF-8" standalone="no"?>
<svg width="16px" height="9px" viewBox="0 0 16 9" version="1.1" xmlns="http://www.w3.org/2000/svg" xmlns:xlink="http://www.w3.org/1999/xlink">
    <!-- Generator: Sketch 39.1 (31720) - http://www.bohemiancoding.com/sketch -->
    <title>shortcuts</title>
    <desc>Created with Sketch.</desc>
    <defs></defs>
    <g id="icons-16px" stroke="none" stroke-width="1" fill="none" fill-rule="evenodd">
        <g id="Talkie" transform="translate(0.000000, -3.000000)" fill="#C7C9CF">
            <path d="M3.19248826,10.2112676 L12.8075117,10.2112676 L12.8075117,11.8262911 L3.19248826,11.8262911 L3.19248826,10.2112676 Z M3.19248826,7.80751174 L3.19248826,9.42253521 L0,9.42253521 L0,7.80751174 L3.19248826,7.80751174 Z M3.98122066,9.42253521 L3.98122066,7.80751174 L6.38497653,7.80751174 L6.38497653,9.42253521 L3.98122066,9.42253521 Z M7.21126761,9.42253521 L7.21126761,7.80751174 L8.78873239,7.80751174 L8.78873239,9.42253521 L7.21126761,9.42253521 Z M9.61502347,9.42253521 L9.61502347,7.80751174 L12.0187793,7.80751174 L12.0187793,9.42253521 L9.61502347,9.42253521 Z M12.8075117,9.42253521 L12.8075117,7.80751174 L16,7.80751174 L16,9.42253521 L12.8075117,9.42253521 Z M0,5.40375587 L2.40375587,5.40375587 L2.40375587,7.01877934 L0,7.01877934 L0,5.40375587 Z M13.5962441,7.01877934 L13.5962441,5.40375587 L16,5.40375587 L16,7.01877934 L13.5962441,7.01877934 Z M12.8075117,7.01877934 L11.1924883,7.01877934 L11.1924883,5.40375587 L12.8075117,5.40375587 L12.8075117,7.01877934 Z M4.80751174,7.01877934 L3.19248826,7.01877934 L3.19248826,5.40375587 L4.80751174,5.40375587 L4.80751174,7.01877934 Z M8,7.01877934 L5.59624413,7.01877934 L5.59624413,5.40375587 L8,5.40375587 L8,7.01877934 Z M10.4037559,7.01877934 L8.78873239,7.01877934 L8.78873239,5.40375587 L10.4037559,5.40375587 L10.4037559,7.01877934 Z M0,4.61502347 L0,3 L1.57746479,3 L1.57746479,4.61502347 L0,4.61502347 Z M2.40375587,4.61502347 L2.40375587,3 L3.98122066,3 L3.98122066,4.61502347 L2.40375587,4.61502347 Z M4.80751174,4.61502347 L4.80751174,3 L6.38497653,3 L6.38497653,4.61502347 L4.80751174,4.61502347 Z M7.21126761,4.61502347 L7.21126761,3 L8.78873239,3 L8.78873239,4.61502347 L7.21126761,4.61502347 Z M9.61502347,4.61502347 L9.61502347,3 L11.1924883,3 L11.1924883,4.61502347 L9.61502347,4.61502347 Z M12.0187793,4.61502347 L12.0187793,3 L16,3 L16,4.61502347 L12.0187793,4.61502347 Z" id="shortcuts"></path>
        </g>
    </g>
</svg>