<?xml version="1.0" encoding="UTF-8" standalone="no"?>
<svg width="14px" height="14px" viewBox="0 0 14 14" version="1.1" xmlns="http://www.w3.org/2000/svg" xmlns:xlink="http://www.w3.org/1999/xlink">
    <!-- Generator: Sketch 39.1 (31720) - http://www.bohemiancoding.com/sketch -->
    <title>support</title>
    <desc>Created with Sketch.</desc>
    <defs></defs>
    <g id="icons-16px" stroke="none" stroke-width="1" fill="none" fill-rule="evenodd">
        <g id="Talkie" transform="translate(-1.000000, -2.000000)" fill="#C7C9CF">
            <path d="M5.76545842,15.6247335 C5.57355981,15.6247335 5.4136467,15.5607682 5.28571429,15.4328358 C5.15778188,15.3049034 5.09381663,15.1449903 5.09381663,14.9530917 L5.09381663,12.9061834 L2.34328358,12.9061834 C1.95948635,12.9061834 1.63966013,12.7729224 1.38379531,12.5063966 C1.12793049,12.2398707 1,11.9147141 1,11.5309168 L1,3.34328358 C1,2.95948635 1.12793049,2.63966013 1.38379531,2.38379531 C1.63966013,2.12793049 1.95948635,2 2.34328358,2 L13.2814499,2 C13.6652471,2 13.9850733,2.12793049 14.2409382,2.38379531 C14.496803,2.63966013 14.6247335,2.95948635 14.6247335,3.34328358 L14.6247335,11.5309168 C14.6247335,11.9147141 14.496803,12.2398707 14.2409382,12.5063966 C13.9850733,12.7729224 13.6652471,12.9061834 13.2814499,12.9061834 L9.12366738,12.9061834 L6.59701493,15.4328358 C6.44776045,15.5607682 6.28784733,15.6247335 6.11727079,15.6247335 L5.76545842,15.6247335 Z" id="support"></path>
        </g>
    </g>
</svg>