<svg xmlns="http://www.w3.org/2000/svg" width="14" height="14"><path fill="#C7C9CF" fill-rule="evenodd" d="M8.393 0v1.571a5.15 5.15 0 0 1 2.714 1.875c.69.917 1.036 1.994 1.036 3.233 0 1.238-.345 2.31-1.036 3.214-.69.905-1.595 1.536-2.714 1.893v1.571c1.547-.38 2.815-1.172 3.803-2.375.989-1.202 1.494-2.637 1.518-4.303-.024-1.667-.53-3.102-1.518-4.304C11.208 1.173 9.94.381 8.393 0Zm1.893 6.679c0-.69-.173-1.304-.518-1.84a3.434 3.434 0 0 0-1.375-1.232v6.107a3.186 3.186 0 0 0 1.375-1.196c.345-.536.518-1.149.518-1.84ZM0 4.393v4.571h3.036l3.821 3.822V.57L3.036 4.393H0Z"/></svg>