<?xml version="1.0" encoding="UTF-8" standalone="no"?>
<svg width="14px" height="14px" viewBox="0 0 14 14" version="1.1" xmlns="http://www.w3.org/2000/svg" xmlns:xlink="http://www.w3.org/1999/xlink">
    <!-- Generator: Sketch 39.1 (31720) - https://www.sketch.com/ -->
    <title>voices</title>
    <desc>Created with Sketch.</desc>
    <defs></defs>
    <g id="icons-16px" stroke="none" stroke-width="1" fill="none" fill-rule="evenodd">
        <g id="Talkie" transform="translate(-1.000000, -1.000000)" fill="#C7C9CF">
            <path d="M9.39285714,1 L9.39285714,2.57142857 C10.5119104,2.90476357 11.4166632,3.52975732 12.1071429,4.44642857 C12.7976225,5.36309982 13.1428571,6.44047 13.1428571,7.67857143 C13.1428571,8.91667286 12.7976225,9.98809071 12.1071429,10.8928571 C11.4166632,11.7976236 10.5119104,12.4285696 9.39285714,12.7857143 L9.39285714,14.3571429 C10.9404839,13.9761886 12.2083284,13.1845298 13.1964286,11.9821429 C14.1845287,10.7797559 14.6904761,9.34524643 14.7142857,7.67857143 C14.6904761,6.01189643 14.1845287,4.57738696 13.1964286,3.375 C12.2083284,2.17261304 10.9404839,1.38095429 9.39285714,1 L9.39285714,1 Z M11.2857143,7.67857143 C11.2857143,6.98809179 11.113097,6.37500268 10.7678571,5.83928571 C10.4226173,5.30356875 9.96428857,4.89285857 9.39285714,4.60714286 L9.39285714,10.7142857 C9.96428857,10.4523796 10.4226173,10.0535741 10.7678571,9.51785714 C11.113097,8.98214018 11.2857143,8.36905107 11.2857143,7.67857143 L11.2857143,7.67857143 Z M1,5.39285714 L1,9.96428571 L4.03571429,9.96428571 L7.85714286,13.7857143 L7.85714286,1.57142857 L4.03571429,5.39285714 L1,5.39285714 Z" id="voices"></path>
        </g>
    </g>
</svg>