<svg xmlns="http://www.w3.org/2000/svg" viewBox="0 0 1024 1024" xml:space="preserve"><path fill="#00AC6C" d="M512.5 2.5c-280.6 0-508 227.4-508 508 0 87 21.9 168.9 60.4 240.5l-5.6 20.9L4.6 975.6c-6.8 27.1 18.1 51.9 44.6 44.6l203.2-55.3 21.6-5.8c71.1 37.9 152.3 59.4 238.5 59.4 280.6 0 508-227.4 508-508s-227.4-508-508-508z"/><path fill="#FFF" d="M299.4 278.1c0-31 33.6-50.4 60.2-34.5l202.5 116.7 202.5 115.9c26.5 15 26.5 53.9 0 69.9L562.1 662.8 359.6 780.4c-26.5 15.9-60.2-3.5-60.2-34.5V278.1z"/></svg>