<?xml version="1.0" encoding="utf-8"?>
<!-- Generator: Adobe Illustrator 21.0.2, SVG Export Plug-In . SVG Version: 6.00 Build 0)  -->
<svg version="1.1" id="Layer_1" xmlns="http://www.w3.org/2000/svg" xmlns:xlink="http://www.w3.org/1999/xlink" x="0px" y="0px" viewBox="0 0 1024 1024" enable-background="new 0 0 1024 1024" xml:space="preserve">
	<path fill="#1E9CD8" d="M512.5,2.5c-280.6,0-508,227.4-508,508c0,87,21.9,168.9,60.4,240.5l-5.6,20.9L4.6,975.6
	c-6.8,27.1,18.1,51.9,44.6,44.6l203.2-55.3l21.6-5.8c71.1,37.9,152.3,59.4,238.5,59.4c280.6,0,508-227.4,508-508
	S793.1,2.5,512.5,2.5z"/>
	<path fill="#FFFFFF" d="M299.4,278.1c0-31,33.6-50.4,60.2-34.5l202.5,116.7l202.5,115.9c26.5,15,26.5,53.9,0,69.9L562.1,662.8
	L359.6,780.4c-26.5,15.9-60.2-3.5-60.2-34.5V278.1z"/>
</svg>
